<svg width="88" height="88" viewBox="0 0 88 88" fill="none" xmlns="http://www.w3.org/2000/svg">
<path fill-rule="evenodd" clip-rule="evenodd" d="M44 88C68.3005 88 88 68.3005 88 44C88 19.6995 68.3005 0 44 0C19.6995 0 0 19.6995 0 44C0 68.3005 19.6995 88 44 88ZM36.9806 24.1476H24.148V35.4376C24.148 52.0649 37.6272 65.5441 54.2545 65.5441H65.5445V52.7115L53.6361 50.3299L48.609 55.357C41.7176 53.4079 36.2842 47.9745 34.3351 41.0831L39.3622 36.056L36.9806 24.1476ZM27.9113 35.4376V27.9109H33.8954L35.277 34.8191L30.1798 39.9163L30.4128 40.9314C32.5018 50.0314 39.6607 57.1903 48.7607 59.2793L49.7757 59.5123L54.873 54.4151L61.7812 55.7967V61.7807H54.2545C39.7056 61.7807 27.9113 49.9865 27.9113 35.4376Z" fill="#D27B32"/>
</svg>
