<svg width="102" height="64" viewBox="0 0 102 64" fill="none" xmlns="http://www.w3.org/2000/svg">
<path d="M5.67993 43.2778L0 56.2151H3.72943L4.74011 53.7026H10.1552L11.1659 56.2151H14.955L9.25645 43.2778H5.67993ZM5.78808 51.0027L7.44395 46.8778L9.09609 51.0027H5.78808Z" fill="#D27B32"/>
<path d="M18.9306 52.8328H21.1683C22.2084 52.8566 23.2418 52.6585 24.2003 52.2516C25.0163 51.8989 25.7115 51.3135 26.2 50.5677C26.6885 49.8219 26.9489 48.9485 26.9489 48.0554C26.9489 47.1624 26.6885 46.289 26.2 45.5432C25.7115 44.7974 25.0163 44.2119 24.2003 43.8593C23.2418 43.4524 22.2084 43.2543 21.1683 43.278H15.2907V56.2153H18.9306V52.8328ZM18.9306 46.1617H20.9706C21.5753 46.1164 22.1757 46.2936 22.66 46.6605C22.8529 46.8369 23.0042 47.0543 23.1029 47.2969C23.2016 47.5395 23.2452 47.8012 23.2306 48.0629C23.2463 48.3237 23.2031 48.5846 23.1043 48.8261C23.0054 49.0677 22.8536 49.2837 22.66 49.4579C22.1739 49.8206 21.5742 49.9949 20.9706 49.9491H18.9493L18.9306 46.1617Z" fill="#D27B32"/>
<path d="M38.5399 43.2778H27.0719V46.1803H31.0251V56.2151H34.6091V46.1803H38.5399V43.2778Z" fill="#D27B32"/>
<path d="M49.5306 46.1053V43.2778H39.4425V56.2151H49.7693V53.3876H43.0451V51.0214H48.7586V48.2877H43.0451V46.1053H49.5306Z" fill="#D27B32"/>
<path d="M52.8946 48.434C52.874 49.3276 52.8005 50.2191 52.6745 51.1039C52.6056 51.6698 52.4174 52.2144 52.1226 52.7014C52.0028 52.8876 51.8362 53.0386 51.6398 53.1394C51.4434 53.2401 51.2239 53.2869 51.0037 53.2751C50.8368 53.2756 50.6704 53.2567 50.5077 53.2189L50.3063 56.2188C50.5674 56.2826 50.821 56.3313 51.0522 56.3651C51.3508 56.4126 51.6525 56.4377 51.9547 56.4401C52.2276 56.4427 52.5 56.4176 52.7678 56.3651C53.3935 56.2645 53.9674 55.9555 54.3975 55.4876C55.0364 54.7171 55.4588 53.7888 55.6208 52.7989C55.8931 51.3139 56.0428 49.8088 56.0683 48.299L56.1429 46.1915H59.8388V56.2151H63.4228V43.2778H53.0549L52.8946 48.434Z" fill="#D27B32"/>
<path d="M74.9131 48.4603C74.0554 47.7503 72.8358 47.3966 71.2545 47.3991H68.271V43.2742H64.687V56.2114H70.7697C72.4728 56.2114 73.8017 55.8164 74.7565 55.0264C75.7112 54.2365 76.1898 53.0977 76.1923 51.6103C76.1973 50.2303 75.7709 49.1803 74.9131 48.4603ZM72.0004 53.0915C71.5947 53.44 71.0714 53.6186 70.5385 53.5902H68.2785V50.0053H70.5385C71.8736 50.0053 72.5412 50.5653 72.5412 51.6853C72.5568 51.945 72.5166 52.205 72.4233 52.4476C72.3299 52.6903 72.1857 52.9099 72.0004 53.0915Z" fill="#D27B32"/>
<path d="M90.573 48.6365H87.1345V50.8377H84.5239L89.7637 43.2778H85.9932L80.2238 51.3552V53.7364H87.0226V56.2151H90.573V53.7364H92.4825V50.8377H90.573V48.6365Z" fill="#D27B32"/>
<path d="M91.1772 48.1752H94.2838V46.1803H97.6664L93.3291 56.2151H97.2972L101.836 45.569V43.2778H91.1772V48.1752Z" fill="#D27B32"/>
<path d="M19.7585 60.25C19.9319 60.1542 20.1275 60.1063 20.3254 60.1113C20.5044 60.1114 20.6811 60.1531 20.8415 60.2331C21.0019 60.3131 21.1418 60.4292 21.2503 60.5725L21.9551 59.9313C21.7649 59.6914 21.519 59.5021 21.2391 59.38L21.1869 59.3613C20.8957 59.2424 20.5837 59.1837 20.2694 59.1888C19.9553 59.1848 19.6435 59.2434 19.352 59.3613C19.2881 59.3862 19.2259 59.415 19.1655 59.4475C18.8473 59.6155 18.5815 59.8685 18.3973 60.1788C18.2141 60.5008 18.1177 60.8653 18.1177 61.2362C18.1177 61.6072 18.2141 61.9717 18.3973 62.2937C18.5815 62.603 18.8475 62.8548 19.1655 63.0212C19.5108 63.2012 19.8955 63.2914 20.2843 63.2837C20.6173 63.2889 20.9477 63.2237 21.254 63.0925C21.5339 62.9704 21.7798 62.7811 21.97 62.5412L21.2503 61.915C21.1418 62.0582 21.0019 62.1744 20.8415 62.2544C20.6811 62.3344 20.5044 62.3761 20.3254 62.3762C20.1272 62.38 19.9316 62.3309 19.7585 62.2337C19.5989 62.1398 19.4695 62.0019 19.3856 61.8362C19.2933 61.6554 19.2471 61.4544 19.2513 61.2512C19.2472 61.0469 19.2933 60.8446 19.3856 60.6625C19.4671 60.4913 19.5968 60.3479 19.7585 60.25Z" fill="#D27B32"/>
<path d="M32.1589 59.4439C32.088 59.4103 32.0144 59.3827 31.9389 59.3614C31.711 59.2955 31.4748 59.2639 31.2377 59.2676H29.4476V63.2051H30.5664V62.1738H31.2489C31.5649 62.1812 31.8789 62.1211 32.1701 61.9976C32.3514 61.9115 32.5125 61.7879 32.6431 61.6349C32.7736 61.4819 32.8706 61.303 32.9276 61.1097C32.9846 60.9165 33.0004 60.7133 32.974 60.5135C32.9476 60.3136 32.8795 60.1217 32.7743 59.9501C32.6245 59.7229 32.41 59.5465 32.1589 59.4439ZM31.6778 61.1651C31.5307 61.2775 31.3473 61.3309 31.1631 61.3151H30.5478V60.1639H31.1631C31.3473 60.148 31.5307 60.2015 31.6778 60.3139C31.7362 60.3678 31.7819 60.4342 31.8116 60.5081C31.8413 60.5821 31.8542 60.6618 31.8494 60.7414C31.8547 60.8205 31.842 60.8997 31.8123 60.9732C31.7826 61.0466 31.7366 61.1122 31.6778 61.1651Z" fill="#D27B32"/>
<path d="M38.2416 59.4513C38.18 59.4175 38.1165 59.3875 38.0514 59.3613C37.4516 59.1276 36.7865 59.1276 36.1867 59.3613C36.1204 59.3875 36.0556 59.4175 35.9928 59.4513C35.6687 59.6205 35.398 59.8772 35.2109 60.1925C35.0239 60.5077 34.9278 60.8692 34.9336 61.2363C34.9277 61.6061 35.026 61.9701 35.217 62.2862C35.404 62.5969 35.6724 62.8499 35.9928 63.0175C36.3398 63.1932 36.723 63.2847 37.1116 63.2847C37.5002 63.2847 37.8834 63.1932 38.2304 63.0175C38.5508 62.8499 38.8191 62.5969 39.0061 62.2862C39.1916 61.9671 39.2894 61.604 39.2894 61.2344C39.2894 60.8647 39.1916 60.5017 39.0061 60.1825C38.8222 59.8734 38.5579 59.6206 38.2416 59.4513ZM38.0439 61.8212C37.9587 61.986 37.8296 62.1236 37.671 62.2187C37.5072 62.3121 37.3222 62.3611 37.134 62.3611C36.9457 62.3611 36.7607 62.3121 36.5969 62.2187C36.4384 62.1236 36.3092 61.986 36.224 61.8212C36.1274 61.6418 36.0786 61.4403 36.0823 61.2363C36.0787 61.0311 36.1274 60.8283 36.224 60.6475C36.3092 60.4828 36.4384 60.3452 36.5969 60.25C36.7616 60.1594 36.9463 60.112 37.134 60.112C37.3217 60.112 37.5063 60.1594 37.671 60.25C37.8296 60.3452 37.9587 60.4828 38.0439 60.6475C38.1392 60.8287 38.1867 61.0314 38.1819 61.2363C38.1867 61.4399 38.1392 61.6414 38.0439 61.8212Z" fill="#D27B32"/>
<path d="M61.8862 59.3613V59.2676H58.7274V59.3613L58.6901 60.4863C58.6845 60.9456 58.6244 61.4026 58.5111 61.8475C58.4178 62.1625 58.2538 62.32 58.0225 62.3238H57.892V64H58.9064V63.2088H61.4163V64H62.427V62.3238H61.8974L61.8862 59.3613ZM60.7935 62.32H59.3017C59.427 62.1141 59.5083 61.8842 59.5404 61.645C59.5985 61.2916 59.6322 60.9345 59.6411 60.5763L59.6598 60.1488H60.7786L60.7935 62.32Z" fill="#D27B32"/>
<path d="M67.6668 59.4513C67.6053 59.4175 67.5418 59.3875 67.4766 59.3613C66.8768 59.1276 66.2118 59.1276 65.6119 59.3613C65.5456 59.3875 65.4808 59.4175 65.418 59.4513C65.094 59.6205 64.8233 59.8772 64.6362 60.1925C64.4491 60.5077 64.3531 60.8692 64.3588 61.2363C64.3529 61.6061 64.4512 61.9701 64.6423 62.2862C64.8293 62.5969 65.0976 62.8499 65.418 63.0175C65.7651 63.1932 66.1482 63.2847 66.5368 63.2847C66.9254 63.2847 67.3086 63.1932 67.6556 63.0175C67.976 62.8499 68.2444 62.5969 68.4314 62.2862C68.6169 61.9671 68.7146 61.604 68.7146 61.2344C68.7146 60.8647 68.6169 60.5017 68.4314 60.1825C68.2474 59.8734 67.9831 59.6206 67.6668 59.4513ZM67.4692 61.8212C67.3846 61.9864 67.2553 62.1242 67.0962 62.2187C66.9345 62.3138 66.7502 62.3631 66.5629 62.3612C66.3733 62.3631 66.1865 62.3139 66.0222 62.2187C65.8642 62.1228 65.7353 61.9854 65.6492 61.8212C65.5527 61.6418 65.5039 61.4403 65.5075 61.2363C65.5039 61.0311 65.5527 60.8283 65.6492 60.6475C65.7353 60.4834 65.8642 60.346 66.0222 60.25C66.1869 60.1562 66.3736 60.1083 66.5629 60.1113C66.7499 60.1081 66.9342 60.1561 67.0962 60.25C67.2553 60.3446 67.3846 60.4823 67.4692 60.6475C67.5644 60.8287 67.6119 61.0314 67.6072 61.2363C67.6119 61.4399 67.5644 61.6414 67.4692 61.8212Z" fill="#D27B32"/>
<path d="M54.666 37.9868H54.5765H0.186462V40.2368H102V37.9868H54.666Z" fill="#D27B32"/>
<path d="M99.1992 34.9868L77.5126 13.0272V2.05871H74.529H74.3985V9.87356V18.3746L71.415 15.3747V7.58985L49.8961 0L84.6917 34.9868H99.1992Z" fill="#D27B32"/>
<path d="M28.7875 12.056L27.4673 10.7285L3.34155 34.9868H5.97826L28.7875 12.056Z" fill="#D27B32"/>
<path d="M23.7602 59.3613V60.1488H24.9648V63.205H26.0538V60.1488H27.2509V59.3613V59.2676H23.7602V59.3613Z" fill="#D27B32"/>
<path d="M44.2124 59.3613L42.6647 61.5775V59.3613V59.2676H41.572V59.3613V63.205H42.62L44.2311 60.8988V63.205H45.3201V59.3613V59.2676H44.2796L44.2124 59.3613Z" fill="#D27B32"/>
<path d="M52.3799 59.2676H51.4699L51.414 59.3613L50.1273 61.54L48.8071 59.3613L48.7512 59.2676H47.8375V59.3613V63.205H48.8556V61.1613L49.8625 62.815H50.3548L51.3618 61.1163L51.3692 63.205H52.3911L52.3799 59.3613V59.2676Z" fill="#D27B32"/>
<path d="M75.5397 59.2676H74.6297L74.5737 59.3613L73.2834 61.54L71.9669 59.3613L71.9109 59.2676H70.9972V59.3613V63.205H72.0154V61.1613L73.0223 62.815H73.5146L74.5215 61.1163L74.5253 63.205H75.5509L75.5397 59.3613V59.2676Z" fill="#D27B32"/>
<path d="M80.4924 59.2676H79.3996L79.3586 59.3613L77.658 63.205H78.7768L79.0826 62.455H80.7385L81.048 63.205H82.2004L80.5073 59.3613L80.4924 59.2676ZM79.4332 61.6188L79.9367 60.3588L80.4401 61.6188H79.4332Z" fill="#D27B32"/>
<path d="M55.8035 34.9869H55.8147H67.0552L44.8352 12.6448L41.1132 11.6586L49.1129 3.61873L47.7927 2.29126L39.0248 11.1073L29.5818 8.60989L29.4401 8.57238L29.5259 8.65863L55.8035 34.9869Z" fill="#D27B32"/>
<path d="M34.4973 22.9871H30.5814V26.9245H34.4973V22.9871Z" fill="#D27B32"/>
<path d="M29.4625 22.9871H25.5466V26.9245H29.4625V22.9871Z" fill="#D27B32"/>
<path d="M29.4625 28.0496H25.5466V31.987H29.4625V28.0496Z" fill="#D27B32"/>
<path d="M34.4973 28.0496H30.5814V31.987H34.4973V28.0496Z" fill="#D27B32"/>
</svg>
